<svg width="16" height="27" viewBox="0 0 16 27" fill="none" xmlns="http://www.w3.org/2000/svg">
<path fill-rule="evenodd" clip-rule="evenodd" d="M0.430306 12.4582L12.436 0.452698C12.7137 0.174802 13.0843 0.0217075 13.4796 0.0217075C13.8748 0.0217075 14.2455 0.174802 14.5232 0.452698L15.4073 1.33661C15.9826 1.91259 15.9826 2.8487 15.4073 3.4238L5.32585 13.5053L15.4185 23.5979C15.6962 23.8758 15.8495 24.2463 15.8495 24.6413C15.8495 25.0367 15.6962 25.4072 15.4185 25.6853L14.5344 26.569C14.2565 26.8469 13.886 27 13.4908 27C13.0955 27 12.7249 26.8469 12.4472 26.569L0.430306 14.5526C0.151961 14.2738 -0.000912917 13.9016 -2.28882e-05 13.5059C-0.000897371 13.1087 0.151961 12.7367 0.430306 12.4582Z" fill="black"/>
</svg>
