<svg width="16" height="27" viewBox="0 0 16 27" fill="none" xmlns="http://www.w3.org/2000/svg">
<path fill-rule="evenodd" clip-rule="evenodd" d="M15.4192 12.4582L3.4135 0.452698C3.13582 0.174802 2.76514 0.0217075 2.3699 0.0217075C1.97467 0.0217075 1.604 0.174802 1.32632 0.452698L0.442175 1.33661C-0.133124 1.91259 -0.133124 2.8487 0.442175 3.4238L10.5236 13.5053L0.430998 23.5979C0.153318 23.8758 0 24.2463 0 24.6413C0 25.0367 0.153318 25.4072 0.430998 25.6853L1.31512 26.569C1.59303 26.8469 1.96349 27 2.35872 27C2.75396 27 3.12463 26.8469 3.40232 26.569L15.4192 14.5526C15.6975 14.2738 15.8504 13.9016 15.8495 13.5059C15.8504 13.1087 15.6975 12.7367 15.4192 12.4582Z" fill="black"/>
</svg>
