<svg width="16" height="16" viewBox="0 0 16 16" fill="none" xmlns="http://www.w3.org/2000/svg">
<path id="lupa" fill-rule="evenodd" clip-rule="evenodd" d="M11.0341 9.71009H10.3368L10.0896 9.47176C11.1489 8.236 11.6961 6.55008 11.396 4.75822C10.9812 2.30436 8.93332 0.344799 6.46181 0.0446865C2.72805 -0.41431 -0.41431 2.72805 0.0446865 6.46181C0.344799 8.93332 2.30436 10.9812 4.75822 11.396C6.55008 11.6961 8.236 11.1489 9.47176 10.0896L9.71009 10.3368V11.0341L13.4615 14.7855C13.8234 15.1474 14.4148 15.1474 14.7767 14.7855C15.1386 14.4236 15.1386 13.8322 14.7767 13.4703L11.0341 9.71009ZM5.73801 9.71009C3.54012 9.71009 1.76592 7.93589 1.76592 5.73801C1.76592 3.54012 3.54012 1.76592 5.73801 1.76592C7.93589 1.76592 9.71009 3.54012 9.71009 5.73801C9.71009 7.93589 7.93589 9.71009 5.73801 9.71009Z" fill="#00502F"/>
</svg>
